<?xml version="1.0" encoding="UTF-8" standalone="no"?>
<!-- Created with Inkscape (http://www.inkscape.org/) -->

<svg
   xmlns:dc="http://purl.org/dc/elements/1.1/"
   xmlns:cc="http://creativecommons.org/ns#"
   xmlns:rdf="http://www.w3.org/1999/02/22-rdf-syntax-ns#"
   xmlns:svg="http://www.w3.org/2000/svg"
   xmlns="http://www.w3.org/2000/svg"
   xmlns:xlink="http://www.w3.org/1999/xlink"
   xmlns:sodipodi="http://sodipodi.sourceforge.net/DTD/sodipodi-0.dtd"
   xmlns:inkscape="http://www.inkscape.org/namespaces/inkscape"
   width="601"
   height="65"
   id="svg2"
   version="1.1"
   inkscape:version="0.48.2 r9819"
   sodipodi:docname="toolbar.svg">
  <defs
     id="defs4">
    <clipPath
       clipPathUnits="userSpaceOnUse"
       id="clipPath3814">
      <rect
         style="color:#000000;fill:#2c89a0;fill-opacity:1;fill-rule:nonzero;stroke:none;stroke-width:2;marker:none;visibility:visible;display:inline;overflow:visible;enable-background:accumulate"
         id="rect3816"
         width="53.916893"
         height="48.790367"
         x="82.908272"
         y="1171.3329" />
    </clipPath>
    <clipPath
       clipPathUnits="userSpaceOnUse"
       id="clipPath3838">
      <rect
         style="color:#000000;fill:#e6e6e6;fill-opacity:1;fill-rule:nonzero;stroke:none;stroke-width:2;marker:none;visibility:visible;display:inline;overflow:visible;enable-background:accumulate"
         id="rect3840"
         width="36"
         height="36"
         x="-356"
         y="1110.3622" />
    </clipPath>
  </defs>
  <sodipodi:namedview
     id="base"
     pagecolor="#ffffff"
     bordercolor="#666666"
     borderopacity="1.0"
     inkscape:pageopacity="0.0"
     inkscape:pageshadow="2"
     inkscape:zoom="2"
     inkscape:cx="-51.139108"
     inkscape:cy="149.40478"
     inkscape:document-units="px"
     inkscape:current-layer="layer1"
     showgrid="false"
     inkscape:window-width="1854"
     inkscape:window-height="1176"
     inkscape:window-x="66"
     inkscape:window-y="24"
     inkscape:window-maximized="1"
     showguides="true"
     inkscape:guide-bbox="true" />
  <metadata
     id="metadata7">
    <rdf:RDF>
      <cc:Work
         rdf:about="">
        <dc:format>image/svg+xml</dc:format>
        <dc:type
           rdf:resource="http://purl.org/dc/dcmitype/StillImage" />
        <dc:title></dc:title>
      </cc:Work>
    </rdf:RDF>
  </metadata>
  <g
     inkscape:label="Layer 1"
     inkscape:groupmode="layer"
     id="layer1"
     transform="translate(0,-987.36218)">
    <rect
       style="color:#000000;fill:#ffffff;fill-opacity:1;fill-rule:nonzero;stroke:#4d4d4d;stroke-width:1;stroke-linecap:round;stroke-linejoin:miter;stroke-miterlimit:4;stroke-opacity:1;stroke-dasharray:none;stroke-dashoffset:0;marker:none;visibility:visible;display:inline;overflow:visible;enable-background:accumulate"
       id="rect2985"
       width="599"
       height="63"
       x="0.5"
       y="987.86218"
       rx="5.8130474"
       ry="5.8130479" />
    <rect
       ry="5.5387387"
       rx="5.7831917"
       y="990.33508"
       x="3.2364392"
       height="60.027122"
       width="595.92352"
       id="rect2987"
       style="color:#000000;fill:#f2f2f2;fill-opacity:1;fill-rule:nonzero;stroke:none;stroke-width:0.97287816;marker:none;visibility:visible;display:inline;overflow:visible;enable-background:accumulate" />
    <path
       sodipodi:type="arc"
       style="color:#000000;fill:#cccccc;fill-opacity:1;fill-rule:nonzero;stroke:#000000;stroke-width:0.51851851999999998;marker:none;visibility:visible;display:inline;overflow:visible;enable-background:accumulate"
       id="size-5"
       sodipodi:cx="563"
       sodipodi:cy="37"
       sodipodi:rx="14"
       sodipodi:ry="14"
       d="m 577,37 a 14,14 0 1 1 -28,0 14,14 0 1 1 28,0 z"
       transform="matrix(0.96428572,0,0,0.96428572,31.607136,991.68365)"
       inkscape:label="#path3776"
       class="pensize" />
    <path
       transform="matrix(0.67694805,0,0,0.67694805,156.68511,1002.3151)"
       d="m 577,37 a 14,14 0 1 1 -28,0 14,14 0 1 1 28,0 z"
       sodipodi:ry="14"
       sodipodi:rx="14"
       sodipodi:cy="37"
       sodipodi:cx="563"
       id="size-4"
       style="color:#000000;fill:#cccccc;fill-opacity:1;fill-rule:nonzero;stroke:#000000;stroke-width:0.73860910999999996;marker:none;visibility:visible;display:inline;overflow:visible;enable-background:accumulate"
       sodipodi:type="arc"
       inkscape:label="#path3778"
       class="pensize" />
    <path
       sodipodi:type="arc"
       style="color:#000000;fill:#cccccc;fill-opacity:1;fill-rule:nonzero;stroke:#000000;stroke-width:1.14925371999999992;marker:none;visibility:visible;display:inline;overflow:visible;enable-background:accumulate"
       id="size-3"
       sodipodi:cx="563"
       sodipodi:cy="37"
       sodipodi:rx="14"
       sodipodi:ry="14"
       d="m 577,37 a 14,14 0 1 1 -28,0 14,14 0 1 1 28,0 z"
       transform="matrix(0.43506494,0,0,0.43506494,263.5812,1011.2648)"
       inkscape:label="#path3780"
       class="pensize" />
    <path
       transform="matrix(0.28571429,0,0,0.28571429,323.8588,1016.7908)"
       d="m 577,37 a 14,14 0 1 1 -28,0 14,14 0 1 1 28,0 z"
       sodipodi:ry="14"
       sodipodi:rx="14"
       sodipodi:cy="37"
       sodipodi:cx="563"
       id="size-2"
       style="color:#000000;fill:#cccccc;fill-opacity:1;fill-rule:nonzero;stroke:#000000;stroke-width:1.74999996999999996;marker:none;visibility:visible;display:inline;overflow:visible;enable-background:accumulate"
       sodipodi:type="arc"
       inkscape:label="#path3782"
       class="pensize" />
    <path
       sodipodi:type="arc"
       style="color:#000000;fill:#000000;fill-opacity:1;fill-rule:nonzero;stroke:none;stroke-width:3.49999983000000014;marker:none;visibility:visible;display:inline;overflow:visible;enable-background:accumulate;stroke-linecap:butt;stroke-linejoin:miter;stroke-miterlimit:4;stroke-opacity:1;stroke-dasharray:none;stroke-dashoffset:0"
       id="size-1"
       sodipodi:cx="563"
       sodipodi:cy="37"
       sodipodi:rx="14"
       sodipodi:ry="14"
       d="m 577,37 a 14,14 0 1 1 -28,0 14,14 0 1 1 28,0 z"
       transform="matrix(0.14285715,0,0,0.14285715,384.57146,1022.0765)"
       inkscape:label="#path3784"
       class="pensize" />
    <rect
       ry="4.8664556"
       rx="4.8664551"
       y="992.58844"
       x="448.22156"
       height="53.547421"
       width="146.55688"
       id="rect3786"
       style="color:#000000;fill:none;stroke:#4d4d4d;stroke-width:0.45257968;stroke-linecap:round;stroke-linejoin:miter;stroke-miterlimit:4;stroke-opacity:1;stroke-dasharray:none;stroke-dashoffset:0;marker:none;visibility:visible;display:inline;overflow:visible;enable-background:accumulate" />
    <text
       xml:space="preserve"
       style="font-size:10.77823448px;font-style:normal;font-variant:normal;font-weight:normal;font-stretch:normal;line-height:125%;letter-spacing:0px;word-spacing:0px;fill:#000000;fill-opacity:1;stroke:none;font-family:sans-serif;-inkscape-font-specification:sans-serif"
       x="452.86795"
       y="1005.7759"
       id="text3788"
       sodipodi:linespacing="125%"><tspan
         sodipodi:role="line"
         id="tspan3790"
         x="452.86795"
         y="1005.7759">Pen Size</tspan></text>
    <g
       id="pen-tool"
       transform="translate(73,-1)"
       inkscape:label="#g3854">
      <rect
         style="color:#000000;fill:#cccccc;fill-opacity:1;stroke:#4d4d4d;stroke-width:0.45257968;stroke-linecap:round;stroke-linejoin:miter;stroke-miterlimit:4;stroke-opacity:1;stroke-dasharray:none;stroke-dashoffset:0;marker:none;visibility:visible;display:inline;overflow:visible;enable-background:accumulate"
         id="rect3844"
         width="59.547421"
         height="53.547421"
         x="247.72156"
         y="993.58844"
         rx="3.6164551"
         ry="3.6164553"
         class="bg" />
      <g
         transform="matrix(0.60859976,0,0,0.60859976,213.13782,287.64161)"
         clip-path="url(#clipPath3814)"
         id="g3805">
        <g
           id="g3798"
           transform="matrix(0.52061378,-0.8537923,0.8537923,0.52061378,-626.46325,826.4159)">
          <path
             inkscape:connector-curvature="0"
             id="path3792"
             d="m 68.058092,828.86695 -10.602597,0 -6.006262,1.58104 6.797824,1.7894 9.811035,0"
             style="fill:#cccccc;stroke:#000000;stroke-width:1.64311588px;stroke-linecap:butt;stroke-linejoin:miter;stroke-opacity:1" />
          <rect
             ry="7.9961824"
             rx="2.336961"
             y="825.83026"
             x="63.095814"
             height="9.5874062"
             width="13.992436"
             id="rect3794"
             style="color:#000000;fill:#2c89a0;fill-opacity:1;fill-rule:nonzero;stroke:#0b2228;stroke-width:3.28623223;marker:none;visibility:visible;display:inline;overflow:visible;enable-background:accumulate"
             transform="matrix(0.99999996,-2.8983598e-4,-2.8992255e-4,0.99999996,0,0)" />
          <rect
             ry="7.9961824"
             rx="1.3622484"
             y="820.39734"
             x="73.183388"
             height="20.453133"
             width="37.74704"
             id="rect3796"
             style="color:#000000;fill:#2c89a0;fill-opacity:1;fill-rule:nonzero;stroke:#0b2228;stroke-width:3.28623223;marker:none;visibility:visible;display:inline;overflow:visible;enable-background:accumulate"
             transform="matrix(0.99999996,-2.8983598e-4,-2.8992255e-4,0.99999996,0,0)" />
        </g>
        <path
           style="fill:none;stroke:#000000;stroke-width:3.28623199;stroke-linecap:butt;stroke-linejoin:miter;stroke-opacity:1"
           d="m 108.00001,1220.3621 c -0.31911,-1.2004 -0.29524,-0.729 -0.29524,-1.3882 0,-0.093 0.044,-0.1949 0,-0.2777 -0.0622,-0.117 -0.233,-0.1606 -0.29524,-0.2776 -0.044,-0.083 0.044,-0.1949 0,-0.2777 -0.0622,-0.117 -0.233,-0.1606 -0.29524,-0.2776 -0.044,-0.083 0.0696,-0.2122 0,-0.2777 -0.1556,-0.1463 -0.40738,-0.1628 -0.59047,-0.2776 -0.23161,-0.1452 -0.34152,-0.4383 -0.59048,-0.5553 -0.088,-0.041 -0.22565,0.065 -0.29524,0 -0.0696,-0.065 0.0696,-0.2122 0,-0.2777 -0.0696,-0.065 -0.22565,0.066 -0.29524,0 -0.0696,-0.065 0.088,-0.2362 0,-0.2776 -0.1834,-0.086 -1.4775,0.069 -1.77143,0 -0.21348,-0.05 -0.38171,-0.2122 -0.59047,-0.2777 -0.28009,-0.088 -0.60563,0.088 -0.88572,0 -0.13203,-0.041 -0.1632,-0.2363 -0.29523,-0.2776 -0.18673,-0.059 -0.39365,0 -0.59048,0 -0.19683,0 -0.39365,0 -0.59048,0 -0.98412,0 -1.96825,0 -2.95238,0 -0.34217,0 -2.26085,-0.048 -2.3619,0 -0.12449,0.058 -0.16022,0.2459 -0.29524,0.2776 -0.3819,0.09 -0.7873,0 -1.18095,0 -0.78731,0 -1.57461,0 -2.36191,0 -0.12419,0 -1.6836,0.041 -1.77143,0 -0.12448,-0.058 -0.1632,-0.2363 -0.29523,-0.2776 -0.18673,-0.059 -0.40376,0.058 -0.59048,0 -0.13204,-0.041 -0.17076,-0.2192 -0.29524,-0.2777 -0.088,-0.041 -0.20721,0.041 -0.29524,0 -0.12448,-0.058 -0.17075,-0.2191 -0.29524,-0.2776 -0.088,-0.041 -0.20721,0.041 -0.29523,0 -0.12449,-0.059 -0.19683,-0.1851 -0.29524,-0.2777 -0.0984,-0.092 -0.233,-0.1606 -0.29524,-0.2776 -0.044,-0.083 0.044,-0.1949 0,-0.2777 -0.12448,-0.2341 -0.50245,-0.307 -0.59048,-0.5553 -0.0622,-0.1756 0.0623,-0.3797 0,-0.5553 -0.088,-0.2483 -0.46599,-0.3212 -0.59047,-0.5553 -0.088,-0.1656 0.088,-0.3898 0,-0.5553 -0.0622,-0.1171 -0.233,-0.1606 -0.29524,-0.2777 -0.0515,-0.097 0,-1.4621 0,-1.6659 0,-0.1569 -0.0647,-1.297 0,-1.3882 0.1544,-0.2178 0.43607,-0.3375 0.59048,-0.5553 0.0546,-0.077 0,-0.1851 0,-0.2777 0.0984,-0.1851 0.13963,-0.409 0.29523,-0.5553 0.0696,-0.065 0.20722,0.041 0.29524,0 0.24897,-0.1171 0.34151,-0.4382 0.59048,-0.5553 0.088,-0.041 0.22565,0.065 0.29524,0 0.0696,-0.065 -0.0696,-0.2122 0,-0.2776 0.0696,-0.065 0.20721,0.041 0.29523,0 0.12449,-0.059 0.17076,-0.2192 0.29524,-0.2777 0.088,-0.041 0.20188,0.029 0.29524,0 0.41753,-0.1309 0.76342,-0.4244 1.18095,-0.5553 0.0934,-0.029 0.22565,0.065 0.29524,0 0.0696,-0.065 -0.0696,-0.2122 0,-0.2777 0.13918,-0.1308 0.4513,0.1309 0.59048,0 0.0696,-0.065 -0.0696,-0.2122 0,-0.2776 0.0696,-0.065 0.22565,0.065 0.29524,0 0.13917,-0.1309 -0.13918,-0.4244 0,-0.5553 0.0696,-0.065 0.22565,0.065 0.29523,0 0.01,-0.01 0,-0.7656 0,-0.833 0,-0.2215 0.0591,-1.2216 0,-1.3882 -0.0696,-0.1963 -0.22565,-0.359 -0.29523,-0.5553 -0.0311,-0.088 0.044,-0.1949 0,-0.2777 -0.0623,-0.117 -0.19683,-0.1851 -0.29524,-0.2776 -0.0984,-0.093 -0.19683,-0.1851 -0.29524,-0.2777 -0.0984,-0.092 -0.19683,-0.1851 -0.29524,-0.2776 -0.0984,-0.093 -0.17075,-0.2191 -0.29524,-0.2777 -0.23619,-0.111 -0.64952,0.1111 -0.88571,0 -0.088,-0.041 0,-0.1851 0,-0.2776 -0.19683,-0.093 -0.38171,-0.2122 -0.59048,-0.2777 -0.31372,-0.098 -0.86723,0.098 -1.18095,0 -0.13203,-0.041 -0.17075,-0.2191 -0.29524,-0.2776 -0.13137,-0.062 -1.04591,0.042 -1.18095,0 -0.13203,-0.041 -0.1632,-0.2363 -0.29524,-0.2777 -0.28009,-0.088 -0.59047,0 -0.88571,0 -0.59048,0 -1.18095,0 -1.77143,0 -1.86984,0 -3.73968,0 -5.60952,0"
           id="path3803"
           inkscape:connector-curvature="0" />
      </g>
      <text
         xml:space="preserve"
         style="font-size:10.77823448px;font-style:normal;font-variant:normal;font-weight:normal;font-stretch:normal;text-align:center;line-height:125%;letter-spacing:0px;word-spacing:0px;text-anchor:middle;fill:#000000;fill-opacity:1;stroke:none;font-family:sans-serif;-inkscape-font-specification:sans-serif"
         x="277.9342"
         y="1043.5259"
         id="text3846"
         sodipodi:linespacing="125%"><tspan
           sodipodi:role="line"
           id="tspan3848"
           x="277.9342"
           y="1043.5259">Pen</tspan></text>
    </g>
    <g
       id="eraser-tool"
       transform="translate(73,-1)"
       inkscape:label="#g3865">
      <rect
         ry="3.6164553"
         rx="3.6164551"
         y="993.58844"
         x="311.22156"
         height="53.547421"
         width="59.547421"
         id="rect3842"
         style="color:#000000;fill:#f2f2f2;fill-opacity:1;stroke:#4d4d4d;stroke-width:0.45257968;stroke-linecap:round;stroke-linejoin:miter;stroke-miterlimit:4;stroke-opacity:1;stroke-dasharray:none;stroke-dashoffset:0;marker:none;visibility:visible;display:inline;overflow:visible;enable-background:accumulate"
         class="bg" />
      <g
         transform="matrix(0.97102198,0,0,0.97102198,669.47703,-80.823899)"
         clip-path="url(#clipPath3838)"
         id="g3832">
        <g
           id="g3822"
           transform="matrix(-0.23437486,-0.20227698,0.20159344,-0.23516955,-607.87558,1310.9652)">
          <rect
             ry="16.599947"
             rx="16.656231"
             style="color:#000000;fill:#e6e6e6;fill-opacity:1;fill-rule:nonzero;stroke:#000000;stroke-width:6.65122652;marker:none;visibility:visible;display:inline;overflow:visible;enable-background:accumulate"
             id="rect3820"
             width="71"
             height="102"
             x="-313"
             y="989.36218" />
          <rect
             transform="translate(0,988.36218)"
             y="41"
             x="-313"
             height="102"
             width="71"
             id="rect3818"
             style="color:#000000;fill:#deaa87;fill-opacity:1;fill-rule:nonzero;stroke:#502d16;stroke-width:6.65122652;marker:none;visibility:visible;display:inline;overflow:visible;enable-background:accumulate" />
        </g>
        <path
           style="fill:none;stroke:#000000;stroke-width:3.08952832;stroke-linecap:butt;stroke-linejoin:miter;stroke-opacity:1"
           d="m -353.00458,1140.4414 c -0.13308,-2.3631 2.83271,-2.6677 4.50625,-3.2028 0.47467,0.061 0.62947,0.6513 0.9388,0.942 m 15.77188,4.3332 c 2.25676,-0.1425 2.77071,2.7459 4.81865,3.0949 1.59,0.9674 3.11121,0.056 4.71333,-0.3968 0.76953,-0.1822 1.49499,-0.9693 2.29693,-1.0026"
           id="path3826"
           inkscape:connector-curvature="0" />
      </g>
      <text
         sodipodi:linespacing="125%"
         id="text3850"
         y="1043.5259"
         x="341.4342"
         style="font-size:10.77823448px;font-style:normal;font-variant:normal;font-weight:normal;font-stretch:normal;text-align:center;line-height:125%;letter-spacing:0px;word-spacing:0px;text-anchor:middle;fill:#000000;fill-opacity:1;stroke:none;font-family:sans-serif;-inkscape-font-specification:sans-serif"
         xml:space="preserve"><tspan
           y="1043.5259"
           x="341.4342"
           id="tspan3852"
           sodipodi:role="line">Eraser</tspan></text>
    </g>
    <g
       id="g3906">
      <path
         transform="matrix(0.83333334,0,0,0.83333334,-18.620478,958.83324)"
         d="m -86.267027,-158.44574 c 0,7.02944 -5.698485,12.72792 -12.727922,12.72792 -7.029441,0 -12.727921,-5.69848 -12.727921,-12.72792 0,-7.02944 5.69848,-12.72792 12.727921,-12.72792 7.029437,0 12.727922,5.69848 12.727922,12.72792 z"
         sodipodi:ry="12.727922"
         sodipodi:rx="12.727922"
         sodipodi:cy="-158.44574"
         sodipodi:cx="-98.994949"
         id="path3904"
         style="color:#000000;fill-opacity:1;fill-rule:nonzero;stroke:#000000;stroke-width:1.20000005000000010;marker:none;visibility:visible;display:inline;overflow:visible;enable-background:accumulate"
         sodipodi:type="arc" />
      <path
         sodipodi:type="arc"
         style="color:#000000;fill:#ffffff;fill-opacity:1;fill-rule:nonzero;stroke:none;stroke-width:3.06382989999999999;marker:none;visibility:visible;display:inline;overflow:visible;enable-background:accumulate;opacity:0.5"
         id="path3999"
         sodipodi:cx="-98.994949"
         sodipodi:cy="-158.44574"
         sodipodi:rx="12.727922"
         sodipodi:ry="12.727922"
         d="m -86.267027,-158.44574 c 0,7.02944 -5.698485,12.72792 -12.727922,12.72792 -7.029441,0 -12.727921,-5.69848 -12.727921,-12.72792 0,-7.02944 5.69848,-12.72792 12.727921,-12.72792 7.029437,0 12.727922,5.69848 12.727922,12.72792 z"
         transform="matrix(0.32638891,0,0,0.32638891,-72.782891,873.64869)" />
    </g>
    <g
       id="g3939"
       transform="translate(32.782862,0)">
      <use
         height="65"
         width="601"
         transform="translate(120.91526,179.60513)"
         id="use3941"
         xlink:href="#g3906"
         y="0"
         x="0"
         style="fill:#d40000" />
      <use
         x="0"
         y="0"
         xlink:href="#g3906"
         id="use3943"
         transform="translate(120.91526,205.06097)"
         width="601"
         height="65"
         style="fill:#000000" />
    </g>
    <g
       id="g3945"
       transform="translate(60.565722,0)">
      <use
         height="65"
         width="601"
         transform="translate(120.91526,179.60513)"
         id="use3947"
         xlink:href="#g3906"
         y="0"
         x="0"
         style="fill:#c87137" />
      <use
         x="0"
         y="0"
         xlink:href="#g3906"
         id="use3949"
         transform="translate(120.91526,205.06097)"
         width="601"
         height="65"
         style="fill:#808080" />
    </g>
    <g
       id="g3951"
       transform="translate(88.348582,0)">
      <use
         height="65"
         width="601"
         transform="translate(120.91526,179.60513)"
         id="use3953"
         xlink:href="#g3906"
         y="0"
         x="0"
         style="fill:#ffcc00" />
      <use
         x="0"
         y="0"
         xlink:href="#g3906"
         id="use3955"
         transform="translate(120.91526,205.06097)"
         width="601"
         height="65"
         style="fill:#cccccc" />
    </g>
    <g
       id="g3957"
       transform="translate(116.13144,0)">
      <use
         height="65"
         width="601"
         transform="translate(120.91526,179.60513)"
         id="use3959"
         xlink:href="#g3906"
         y="0"
         x="0"
         style="fill:#c8ab37" />
      <use
         x="0"
         y="0"
         xlink:href="#g3906"
         id="use3961"
         transform="translate(120.91526,205.06097)"
         width="601"
         height="65"
         style="fill:#ffffff" />
    </g>
    <g
       id="g3963"
       transform="translate(143.9143,0)">
      <use
         height="65"
         width="601"
         transform="translate(120.91526,179.60513)"
         id="use3965"
         xlink:href="#g3906"
         y="0"
         x="0"
         style="fill:#aad400" />
      <use
         x="0"
         y="0"
         xlink:href="#g3906"
         id="use3967"
         transform="translate(120.91526,205.06097)"
         width="601"
         height="65"
         style="fill:#668000" />
    </g>
    <g
       id="g3969"
       transform="translate(171.69717,0)">
      <use
         height="65"
         width="601"
         transform="translate(120.91526,179.60513)"
         id="use3971"
         xlink:href="#g3906"
         y="0"
         x="0"
         style="fill:#55d400" />
      <use
         x="0"
         y="0"
         xlink:href="#g3906"
         id="use3973"
         transform="translate(120.91526,205.06097)"
         width="601"
         height="65"
         style="fill:#aa00d4" />
    </g>
    <g
       id="g3975"
       transform="translate(199.48004,0)">
      <use
         height="65"
         width="601"
         transform="translate(120.91526,179.60513)"
         id="use3977"
         xlink:href="#g3906"
         y="0"
         x="0"
         style="fill:#00d400" />
      <use
         x="0"
         y="0"
         xlink:href="#g3906"
         id="use3979"
         transform="translate(120.91526,205.06097)"
         width="601"
         height="65"
         style="fill:#5a2ca0" />
    </g>
    <g
       id="g3981"
       transform="translate(227.2629,0)">
      <use
         height="65"
         width="601"
         transform="translate(120.91526,179.60513)"
         id="use3983"
         xlink:href="#g3906"
         y="0"
         x="0"
         style="fill:#00aa44" />
      <use
         x="0"
         y="0"
         xlink:href="#g3906"
         id="use3985"
         transform="translate(120.91526,205.06097)"
         width="601"
         height="65"
         style="fill:#ccaaff" />
    </g>
    <g
       id="g3987"
       transform="translate(255.04577,0)">
      <use
         height="65"
         width="601"
         transform="translate(120.91526,179.60513)"
         id="use3989"
         xlink:href="#g3906"
         y="0"
         x="0"
         style="fill:#00d4aa" />
      <use
         x="0"
         y="0"
         xlink:href="#g3906"
         id="use3991"
         transform="translate(120.91526,205.06097)"
         width="601"
         height="65"
         style="fill:#3737c8" />
    </g>
    <g
       id="g3993"
       transform="translate(282.82864,0)">
      <use
         height="65"
         width="601"
         transform="translate(120.91526,179.60513)"
         id="use3995"
         xlink:href="#g3906"
         y="0"
         x="0"
         style="fill:#00aad4" />
      <use
         x="0"
         y="0"
         xlink:href="#g3906"
         id="use3997"
         transform="translate(120.91526,205.06097)"
         width="601"
         height="65"
         style="fill:#0044aa" />
    </g>
    <g
       id="g4001"
       transform="matrix(1.3461257,0,0,1.3461257,158.99894,-93.675076)">
      <path
         sodipodi:type="arc"
         style="color:#000000;fill-opacity:1;fill-rule:nonzero;stroke:#2b0000;stroke-width:0.89144725;marker:none;visibility:visible;display:inline;overflow:visible;enable-background:accumulate"
         id="current-color"
         sodipodi:cx="-98.994949"
         sodipodi:cy="-158.44574"
         sodipodi:rx="12.727922"
         sodipodi:ry="12.727922"
         d="m -86.267027,-158.44574 c 0,7.02944 -5.698485,12.72792 -12.727922,12.72792 -7.029441,0 -12.727921,-5.69848 -12.727921,-12.72792 0,-7.02944 5.69848,-12.72792 12.727921,-12.72792 7.029437,0 12.727922,5.69848 12.727922,12.72792 z"
         transform="matrix(0.83333334,0,0,0.83333334,-18.620478,958.83324)"
         inkscape:label="#path4003" />
      <path
         transform="matrix(0.32638891,0,0,0.32638891,-72.782891,873.64869)"
         d="m -86.267027,-158.44574 c 0,7.02944 -5.698485,12.72792 -12.727922,12.72792 -7.029441,0 -12.727921,-5.69848 -12.727921,-12.72792 0,-7.02944 5.69848,-12.72792 12.727921,-12.72792 7.029437,0 12.727922,5.69848 12.727922,12.72792 z"
         sodipodi:ry="12.727922"
         sodipodi:rx="12.727922"
         sodipodi:cy="-158.44574"
         sodipodi:cx="-98.994949"
         id="path4005"
         style="opacity:0.5;color:#000000;fill:#ffffff;fill-opacity:1;fill-rule:nonzero;stroke:none;stroke-width:3.0638299;marker:none;visibility:visible;display:inline;overflow:visible;enable-background:accumulate"
         sodipodi:type="arc" />
    </g>
  </g>
</svg>
