<?xml version="1.0" encoding="UTF-8" standalone="no"?>
<!-- Created with Inkscape (http://www.inkscape.org/) -->

<svg
   xmlns:dc="http://purl.org/dc/elements/1.1/"
   xmlns:cc="http://creativecommons.org/ns#"
   xmlns:rdf="http://www.w3.org/1999/02/22-rdf-syntax-ns#"
   xmlns:svg="http://www.w3.org/2000/svg"
   xmlns="http://www.w3.org/2000/svg"
   xmlns:xlink="http://www.w3.org/1999/xlink"
   xmlns:sodipodi="http://sodipodi.sourceforge.net/DTD/sodipodi-0.dtd"
   xmlns:inkscape="http://www.inkscape.org/namespaces/inkscape"
   width="744.09448819"
   height="1052.3622047"
   id="svg2"
   version="1.1"
   inkscape:version="0.48.2 r9819"
   sodipodi:docname="mockup.svg">
  <defs
     id="defs4">
    <linearGradient
       inkscape:collect="always"
       id="linearGradient3021">
      <stop
         style="stop-color:#ffffff;stop-opacity:1;"
         offset="0"
         id="stop3023" />
      <stop
         style="stop-color:#ffffff;stop-opacity:0;"
         offset="1"
         id="stop3025" />
    </linearGradient>
    <linearGradient
       inkscape:collect="always"
       id="linearGradient3011">
      <stop
         style="stop-color:#666666;stop-opacity:1"
         offset="0"
         id="stop3013" />
      <stop
         id="stop3019"
         offset="0.41282973"
         style="stop-color:#333333;stop-opacity:1" />
      <stop
         style="stop-color:#999999;stop-opacity:1"
         offset="1"
         id="stop3015" />
    </linearGradient>
    <linearGradient
       inkscape:collect="always"
       xlink:href="#linearGradient3011"
       id="linearGradient3017"
       x1="244.45692"
       y1="201.81374"
       x2="265.67014"
       y2="311.92035"
       gradientUnits="userSpaceOnUse"
       gradientTransform="matrix(0.81102362,0,0,1.0235294,25.920014,-4.5428705)" />
    <linearGradient
       inkscape:collect="always"
       xlink:href="#linearGradient3021"
       id="linearGradient3027"
       x1="340.42142"
       y1="206.8645"
       x2="340.42142"
       y2="252.36624"
       gradientUnits="userSpaceOnUse"
       gradientTransform="matrix(0.81102362,0,0,1.0235294,25.920014,-4.5428705)" />
  </defs>
  <sodipodi:namedview
     id="base"
     pagecolor="#000000"
     bordercolor="#666666"
     borderopacity="1.0"
     inkscape:pageopacity="1"
     inkscape:pageshadow="2"
     inkscape:zoom="0.98994949"
     inkscape:cx="244.17843"
     inkscape:cy="920.37972"
     inkscape:document-units="px"
     inkscape:current-layer="layer1"
     showgrid="false"
     inkscape:window-width="1854"
     inkscape:window-height="1176"
     inkscape:window-x="66"
     inkscape:window-y="24"
     inkscape:window-maximized="1"
     showguides="true"
     inkscape:guide-bbox="true" />
  <metadata
     id="metadata7">
    <rdf:RDF>
      <cc:Work
         rdf:about="">
        <dc:format>image/svg+xml</dc:format>
        <dc:type
           rdf:resource="http://purl.org/dc/dcmitype/StillImage" />
        <dc:title></dc:title>
      </cc:Work>
    </rdf:RDF>
  </metadata>
  <g
     inkscape:label="Layer 1"
     inkscape:groupmode="layer"
     id="layer1">
    <g
       id="g3003"
       inkscape:export-filename="/home/mauve/dev/doodlr/assets/images/logo.png"
       inkscape:export-xdpi="90"
       inkscape:export-ydpi="90">
      <path
         inkscape:connector-curvature="0"
         id="rect2992"
         d="M 34.882149,49.459094 51.029494,121.36107 147.90862,99.604494 131.76128,27.702521 34.882149,49.459094 z m 8.900396,6.769382 82.827475,-18.60093 12.3982,55.207564 -82.827472,18.60093 -12.398203,-55.207564 z"
         style="opacity:0.75;color:#000000;fill:#b3b3b3;fill-opacity:1;fill-rule:nonzero;stroke:none;stroke-width:1;marker:none;visibility:visible;display:inline;overflow:visible;enable-background:accumulate" />
      <path
         d="m 81.4375,49.96875 c -2.323531,1.18e-4 -4.924711,1.081019 -6.5625,2.71875 -1.723778,1.72384 -2.718803,4.359689 -2.71875,6.65625 l 0,2.3125 c -2.052244,0.146109 -3.887408,0.396653 -5.5625,0.8125 -0.0576,0.0143 -0.130219,0.01656 -0.1875,0.03125 l 0,0.03125 C 63.683449,63.146262 61.195037,64.099418 59,65.8125 l -0.03125,-0.03125 c -0.0357,0.02639 -0.05832,0.06704 -0.09375,0.09375 -0.04888,0.03894 -0.107684,0.05402 -0.15625,0.09375 L 58.75,66 c -3.870853,2.995859 -6.125003,7.907313 -6.125,12.78125 l 0,13.03125 c -3e-6,4.913638 2.287273,9.81939 6.125,12.90625 a 6.0615216,6.0615216 0 0 0 0.0625,0.0625 c 2.322055,1.82448 5.042728,3.02686 7.875,3.65625 a 6.0615216,6.0615216 0 0 0 0.03125,0.0312 c 2.597401,0.5616 5.42293,0.8125 8.53125,0.8125 2.21035,0 4.617738,-0.20962 7.25,-0.5625 l 0,0.0312 c 0.05606,-0.006 0.100347,-0.0249 0.15625,-0.0312 2.693656,-0.30537 5.232123,-0.74566 7.5625,-1.3125 a 6.0615216,6.0615216 0 0 0 0.34375,-0.0937 c 1.704766,-0.52457 3.356679,-1.62462 4.5625,-3.0625 0.167018,0.14672 0.295384,0.3293 0.46875,0.46875 a 6.0615216,6.0615216 0 0 0 0.0625,0.0625 c 2.291492,1.80047 4.99861,3.024 7.84375,3.65625 a 6.0615216,6.0615216 0 0 0 0.0312,0.0312 c 2.60962,0.56425 5.45418,0.8125 8.5625,0.8125 2.21035,0 4.61774,-0.20962 7.25,-0.5625 l 0,0.0312 c 0.0561,-0.006 0.10035,-0.0249 0.15625,-0.0312 2.69365,-0.30537 5.23212,-0.74566 7.5625,-1.3125 a 6.0615216,6.0615216 0 0 0 0.34375,-0.0937 c 1.70476,-0.52457 3.35667,-1.62459 4.5625,-3.0625 0.16645,0.14602 0.29622,0.32998 0.46875,0.46875 a 6.0615216,6.0615216 0 0 0 0.0625,0.0625 c 2.29149,1.80047 4.99861,3.024 7.84375,3.65625 a 6.0615216,6.0615216 0 0 0 0.0312,0.0312 c 2.60962,0.56425 5.45418,0.8125 8.5625,0.8125 2.21035,0 4.61774,-0.20962 7.25,-0.5625 l 0,0.0312 c 0.0564,-0.006 0.10004,-0.0249 0.15625,-0.0312 2.69759,-0.30604 5.2143,-0.74893 7.53125,-1.3125 a 6.0615216,6.0615216 0 0 0 0.34375,-0.0937 c 1.70476,-0.52457 3.35667,-1.62459 4.5625,-3.0625 0.16702,0.14672 0.29538,0.3293 0.46875,0.46875 a 6.0615216,6.0615216 0 0 0 0.0625,0.0625 c 2.29149,1.80047 4.99861,3.024 7.84375,3.65625 a 6.0615216,6.0615216 0 0 0 0.0312,0.0312 c 2.60962,0.56425 5.45418,0.8125 8.5625,0.8125 2.21035,0 4.61774,-0.20962 7.25,-0.5625 l 0,0.0312 c 0.0561,-0.006 0.10035,-0.0249 0.15625,-0.0312 2.69365,-0.30537 5.23212,-0.74566 7.5625,-1.3125 a 6.0615216,6.0615216 0 0 0 0.34375,-0.0937 c 1.00963,-0.31067 1.97192,-0.84145 2.875,-1.5 1.56944,1.08386 3.45064,1.875 5.28125,1.875 l 6.53125,0 c 1.85841,0 3.76409,-0.82444 5.34375,-1.9375 1.63337,1.13941 3.56594,1.9375 5.40625,1.9375 l 6.5,0 c 2.49115,0 5.17821,-1.28536 6.75,-3 1.45018,-1.58205 2.53119,-4.01299 2.53125,-6.375 l 0,-18.21875 c 1.01697,0.03596 2.02147,0.07651 3.0625,0.25 1.47705,0.246202 3.13018,0.600718 4.90625,1.03125 l 0,-0.03125 c 1.37351,0.457261 1.83766,0.281273 2.1875,0.28125 1.79712,2.8e-5 3.9446,-0.492516 5.71875,-1.84375 1.77415,-1.351234 2.8385,-3.354124 3.28125,-5.125 A 6.0615216,6.0615216 0 0 0 261.5,74.375 c 0.0445,-0.222599 0.0915,-0.378694 0.125,-0.53125 0.0168,-0.07628 0.0352,-0.145612 0.0625,-0.28125 0.0273,-0.135638 0.12428,0.06884 0.125,-1.28125 -8e-5,-3.568173 -2.90219,-7.385202 -5.90625,-8.65625 A 6.0615216,6.0615216 0 0 0 255,63.34375 C 254.13007,63.126306 253.37509,62.929752 252.65625,62.75 251.7928,62.534189 251.04602,62.390492 250.5,62.28125 A 6.0615216,6.0615216 0 0 0 250.4375,62.25 c -3.00745,-0.563853 -5.9797,-0.87496 -8.90625,-0.875 -3.35812,3.8e-5 -6.48394,0.25564 -9.375,0.78125 -2.54618,0.462974 -4.89073,1.427016 -7.0625,2.71875 l 0,-5.53125 c -5e-5,-2.183516 -1.08262,-4.652273 -2.65625,-6.3125 l 0.0625,-0.0625 c -0.0568,-0.06195 -0.15911,-0.09547 -0.21875,-0.15625 -0.062,-0.06106 -0.0927,-0.160491 -0.15625,-0.21875 l -0.0625,0.0625 c -1.60123,-1.528475 -4.00153,-2.687382 -6.3125,-2.6875 l -6.53125,0 c -1.85824,9.5e-5 -3.76414,0.824492 -5.34375,1.9375 -1.63666,-1.14877 -3.58918,-1.937411 -5.4375,-1.9375 l -6.5,0 c -2.32353,1.18e-4 -4.9247,1.081008 -6.5625,2.71875 -1.7238,1.723855 -2.7188,4.359722 -2.71875,6.65625 l 0,2.3125 c -2.05224,0.146109 -3.88741,0.396654 -5.5625,0.8125 -0.0576,0.0143 -0.13022,0.01656 -0.1875,0.03125 l 0,0.03125 c -2.7228,0.615012 -5.21121,1.568169 -7.40625,3.28125 l -0.0312,-0.03125 c -0.0357,0.02639 -0.0583,0.06704 -0.0937,0.09375 -0.0489,0.03894 -0.10768,0.05402 -0.15625,0.09375 L 169.25,66 c -0.81281,0.629079 -1.55715,1.342959 -2.21875,2.125 -0.69449,-0.818366 -1.45683,-1.569477 -2.3125,-2.21875 L 164.75,65.875 c -0.0477,-0.03747 -0.10819,-0.05676 -0.15625,-0.09375 -2.25708,-1.737307 -4.9251,-2.945843 -7.75,-3.5625 -0.009,-0.0021 -0.0219,0.0021 -0.0312,0 -2.56974,-0.568344 -5.37182,-0.843712 -8.46875,-0.84375 -2.28505,4.1e-5 -4.72785,0.244254 -7.375,0.59375 l 0,-0.03125 c -0.0451,0.0051 -0.08,0.02606 -0.125,0.03125 -2.65242,0.306414 -5.14561,0.747446 -7.46875,1.3125 a 6.0615216,6.0615216 0 0 0 -0.34375,0.09375 c -1.56688,0.482182 -3.32003,1.508927 -4.59375,3.03125 -0.18621,-0.157123 -0.33676,-0.352394 -0.53125,-0.5 l 0.0312,-0.03125 c -0.048,-0.03773 -0.10787,-0.05652 -0.15625,-0.09375 -2.28634,-1.759271 -4.96768,-2.948503 -7.78125,-3.5625 -0.009,-0.0021 -0.0219,0.0021 -0.0312,0 -2.56974,-0.568344 -5.37182,-0.843712 -8.46875,-0.84375 -2.28505,4.1e-5 -4.72785,0.244254 -7.375,0.59375 l 0,-0.03125 c -0.0451,0.0051 -0.08,0.02606 -0.125,0.03125 -2.37572,0.274449 -4.577049,0.705934 -6.6875,1.1875 l 0,-3.8125 c -8.4e-5,-2.296361 -0.995147,-4.932427 -2.71875,-6.65625 -1.723834,-1.723617 -4.359936,-2.71864 -6.65625,-2.71875 l -6.5,0 z"
         id="path3001"
         style="font-size:84.56233215px;font-style:normal;font-variant:normal;font-weight:normal;font-stretch:normal;line-height:125%;letter-spacing:0px;word-spacing:0px;fill:#000000;fill-opacity:1;stroke:none;font-family:Galapogos BRK;-inkscape-font-specification:Galapogos BRK"
         inkscape:original="M 81.4375 56.03125 C 80.535478 56.031296 79.776351 56.348671 79.15625 56.96875 C 78.536104 57.588918 78.218728 58.38542 78.21875 59.34375 L 78.21875 67.53125 C 73.539617 67.531284 70.104857 67.811285 67.90625 68.375 C 65.594871 68.882407 63.80274 69.641534 62.5625 70.65625 C 59.969252 72.573025 58.687498 75.286033 58.6875 78.78125 L 58.6875 91.8125 C 58.687498 95.195 59.969252 97.914133 62.5625 100 C 64.140989 101.24025 65.970495 102.08025 68 102.53125 C 70.085857 102.98225 72.487615 103.21875 75.25 103.21875 C 77.166726 103.21875 79.363232 103.057 81.84375 102.71875 C 84.380592 102.43687 86.695349 102.03862 88.78125 101.53125 C 89.514091 101.30575 90.111467 100.9075 90.5625 100.34375 C 91.013465 99.780003 91.249965 99.101751 91.25 98.3125 L 91.25 59.34375 C 91.249965 58.38542 90.932589 57.588918 90.3125 56.96875 C 89.692343 56.348671 88.895841 56.031296 87.9375 56.03125 L 81.4375 56.03125 z M 191.9375 56.03125 C 191.03548 56.031296 190.27635 56.348671 189.65625 56.96875 C 189.0361 57.588918 188.71873 58.38542 188.71875 59.34375 L 188.71875 67.53125 C 184.03962 67.531284 180.60486 67.811285 178.40625 68.375 C 176.09487 68.882407 174.30274 69.641534 173.0625 70.65625 C 170.46925 72.573025 169.1875 75.286033 169.1875 78.78125 L 169.1875 91.8125 C 169.1875 95.195 170.46925 97.914133 173.0625 100 C 174.64099 101.24025 176.43924 102.08025 178.46875 102.53125 C 180.55461 102.98225 182.98761 103.21875 185.75 103.21875 C 187.66673 103.21875 189.86323 103.057 192.34375 102.71875 C 194.88059 102.43687 197.19535 102.03862 199.28125 101.53125 C 200.01409 101.30575 200.61147 100.9075 201.0625 100.34375 C 201.51346 99.780003 201.74997 99.101751 201.75 98.3125 L 201.75 59.34375 C 201.74997 58.38542 201.43259 57.588918 200.8125 56.96875 C 200.19234 56.348671 199.39584 56.031296 198.4375 56.03125 L 191.9375 56.03125 z M 209.21875 56.03125 C 208.31675 56.031296 207.55762 56.348671 206.9375 56.96875 C 206.31737 57.588918 206 58.38542 206 59.34375 L 206 98.3125 C 206 99.270875 206.31737 100.06738 206.9375 100.6875 C 207.55762 101.30762 208.31675 101.625 209.21875 101.625 L 215.75 101.625 C 216.65199 101.625 217.41111 101.30762 218.03125 100.6875 C 218.70773 100.011 219.03123 99.214501 219.03125 98.3125 L 219.03125 59.34375 C 219.03123 58.441795 218.70773 57.682668 218.03125 57.0625 C 217.41111 56.386047 216.65199 56.031296 215.75 56.03125 L 209.21875 56.03125 z M 111.5 67.4375 C 109.58324 67.437534 107.34936 67.630535 104.8125 67.96875 C 102.332 68.250658 100.05461 68.648909 97.96875 69.15625 C 97.235873 69.381782 96.638496 69.748783 96.1875 70.3125 C 95.736499 70.87628 95.531248 71.554532 95.53125 72.34375 L 95.53125 91.8125 C 95.531248 95.195 96.813002 97.914133 99.40625 100 C 100.98474 101.24025 102.78299 102.08025 104.8125 102.53125 C 106.89836 102.98225 109.33136 103.21875 112.09375 103.21875 C 114.01048 103.21875 116.20698 103.057 118.6875 102.71875 C 121.22434 102.43687 123.5391 102.03862 125.625 101.53125 C 126.35784 101.30575 126.95522 100.9075 127.40625 100.34375 C 127.85721 99.780003 128.06247 99.101751 128.0625 98.3125 L 128.0625 78.78125 C 128.06247 75.286033 126.78071 72.573025 124.1875 70.65625 C 122.60897 69.416035 120.77334 68.576032 118.6875 68.125 C 116.65798 67.674035 114.26235 67.437534 111.5 67.4375 z M 148.34375 67.4375 C 146.42699 67.437534 144.19311 67.630535 141.65625 67.96875 C 139.17575 68.250658 136.89836 68.648909 134.8125 69.15625 C 134.07962 69.381782 133.48225 69.748783 133.03125 70.3125 C 132.58025 70.87628 132.34375 71.554532 132.34375 72.34375 L 132.34375 91.8125 C 132.34375 95.195 133.65675 97.914133 136.25 100 C 137.82849 101.24025 139.62674 102.08025 141.65625 102.53125 C 143.74211 102.98225 146.17511 103.21875 148.9375 103.21875 C 150.85423 103.21875 153.05073 103.057 155.53125 102.71875 C 158.06809 102.43687 160.3516 102.03862 162.4375 101.53125 C 163.17034 101.30575 163.76772 100.9075 164.21875 100.34375 C 164.66971 99.780003 164.90622 99.101751 164.90625 98.3125 L 164.90625 78.78125 C 164.90622 75.286033 163.59321 72.573025 161 70.65625 C 159.42147 69.416035 157.61709 68.576032 155.53125 68.125 C 153.50173 67.674035 151.1061 67.437534 148.34375 67.4375 z M 241.53125 67.4375 C 238.48699 67.437534 235.73048 67.674035 233.25 68.125 C 230.7695 68.576032 228.69736 69.416035 227.0625 70.65625 C 224.46925 72.573025 223.1875 75.286033 223.1875 78.78125 L 223.1875 98.3125 C 223.1875 99.270875 223.50487 100.06738 224.125 100.6875 C 224.74512 101.30762 225.54162 101.625 226.5 101.625 L 233 101.625 C 233.90199 101.625 234.66111 101.27025 235.28125 100.59375 C 235.90136 99.917253 236.21873 99.158126 236.21875 98.3125 L 236.21875 78.78125 C 236.27511 77.766526 236.39949 76.970024 236.625 76.40625 C 236.90686 75.786152 237.26161 75.344401 237.65625 75.0625 C 238.10723 74.724278 238.62986 74.487777 239.25 74.375 C 239.8701 74.262278 240.58573 74.137902 241.375 73.96875 C 243.00985 73.968778 244.65248 74.093153 246.34375 74.375 C 248.03497 74.656901 249.8271 75.049027 251.6875 75.5 C 251.80022 75.556401 252.04284 75.562526 252.4375 75.5625 C 254.12871 75.562526 255.16784 74.766024 255.5625 73.1875 C 255.67522 72.62378 255.74997 72.337654 255.75 72.28125 C 255.74997 70.871909 254.99696 69.838906 253.53125 69.21875 C 252.62922 68.993283 251.86397 68.794157 251.1875 68.625 C 250.51097 68.455908 249.87622 68.331533 249.3125 68.21875 C 246.60648 67.71141 244.01172 67.437534 241.53125 67.4375 z M 74.84375 73.96875 C 75.914854 73.968778 77.034857 74.167903 78.21875 74.5625 L 78.21875 96.125 C 77.091232 96.519629 76.014729 96.718755 75 96.71875 C 73.70336 96.718755 72.825983 96.320504 72.375 95.53125 C 71.923986 94.742008 71.718735 93.503755 71.71875 91.8125 L 71.71875 78.78125 C 71.718735 77.879276 71.79961 77.001898 71.96875 76.15625 C 72.194234 75.310653 72.592485 74.713276 73.15625 74.375 C 73.550857 74.093153 74.110859 73.968778 74.84375 73.96875 z M 111.84375 73.96875 C 112.74573 73.968778 113.34311 74.093153 113.625 74.375 C 114.2451 74.769651 114.64335 75.329653 114.8125 76.0625 C 114.9816 76.795398 115.06248 77.710151 115.0625 78.78125 L 115.0625 96.125 C 113.93498 96.519629 112.85848 96.718755 111.84375 96.71875 C 110.54711 96.718755 109.66973 96.320504 109.21875 95.53125 C 108.76774 94.742008 108.53123 93.503755 108.53125 91.8125 L 108.53125 74.5625 C 109.15136 74.393403 109.74873 74.237777 110.3125 74.125 C 110.87623 74.012278 111.39273 73.968778 111.84375 73.96875 z M 148.65625 73.96875 C 149.55823 73.968778 150.15561 74.093153 150.4375 74.375 C 151.0576 74.769651 151.45585 75.329653 151.625 76.0625 C 151.7941 76.795398 151.87498 77.710151 151.875 78.78125 L 151.875 96.125 C 150.74748 96.519629 149.67098 96.718755 148.65625 96.71875 C 147.35961 96.718755 146.51348 96.320504 146.0625 95.53125 C 145.61149 94.742008 145.37498 93.503755 145.375 91.8125 L 145.375 74.5625 C 145.99511 74.393403 146.59248 74.237777 147.15625 74.125 C 147.71998 74.012278 148.20523 73.968778 148.65625 73.96875 z M 185.34375 73.96875 C 186.41485 73.968778 187.53486 74.167903 188.71875 74.5625 L 188.71875 96.125 C 187.59123 96.519629 186.51473 96.718755 185.5 96.71875 C 184.20336 96.718755 183.32598 96.320504 182.875 95.53125 C 182.42399 94.742008 182.18748 93.503755 182.1875 91.8125 L 182.1875 78.78125 C 182.18748 77.879276 182.29961 77.001898 182.46875 76.15625 C 182.69423 75.310653 183.06124 74.713276 183.625 74.375 C 184.01961 74.093153 184.61086 73.968778 185.34375 73.96875 z "
         inkscape:radius="6.0609155"
         sodipodi:type="inkscape:offset" />
      <text
         sodipodi:linespacing="125%"
         id="text2985"
         y="101.61491"
         x="56.573135"
         style="font-size:84.56233215000000314px;font-style:normal;font-variant:normal;font-weight:normal;font-stretch:normal;line-height:125%;letter-spacing:0px;word-spacing:0px;fill:#ffffff;fill-opacity:1;stroke:none;font-family:Galapogos BRK;-inkscape-font-specification:Galapogos BRK"
         xml:space="preserve"><tspan
           y="101.61491"
           x="56.573135"
           id="tspan2987"
           sodipodi:role="line">doodlr</tspan></text>
    </g>
    <g
       id="g3062"
       transform="translate(50.507628,114.14724)">
      <rect
         ry="4.0406103"
         rx="4.0406103"
         y="207.18903"
         x="202.87965"
         height="87.88327"
         width="208.09143"
         id="rect3009"
         style="opacity:0.75;color:#000000;fill:url(#linearGradient3017);fill-opacity:1;fill-rule:nonzero;stroke:url(#linearGradient3027);stroke-width:0.99999994;marker:none;visibility:visible;display:inline;overflow:visible;enable-background:accumulate" />
      <text
         sodipodi:linespacing="68.000001%"
         id="text3035"
         y="244.32005"
         x="306.93912"
         style="font-size:50.25880051px;font-style:normal;font-variant:normal;font-weight:normal;font-stretch:normal;text-align:center;line-height:68.00000072%;letter-spacing:0px;word-spacing:0px;text-anchor:middle;fill:#ffffff;fill-opacity:1;stroke:none;font-family:Galapogos BRK;-inkscape-font-specification:Galapogos BRK"
         xml:space="preserve"><tspan
           y="244.32005"
           x="306.93912"
           id="tspan3037"
           sodipodi:role="line">start</tspan><tspan
           id="tspan3060"
           y="278.49603"
           x="306.93912"
           sodipodi:role="line">doodling</tspan></text>
    </g>
  </g>
</svg>
