<?xml version="1.0" encoding="UTF-8" standalone="no"?>
<!-- Created with Inkscape (http://www.inkscape.org/) -->

<svg
   xmlns:dc="http://purl.org/dc/elements/1.1/"
   xmlns:cc="http://creativecommons.org/ns#"
   xmlns:rdf="http://www.w3.org/1999/02/22-rdf-syntax-ns#"
   xmlns:svg="http://www.w3.org/2000/svg"
   xmlns="http://www.w3.org/2000/svg"
   xmlns:sodipodi="http://sodipodi.sourceforge.net/DTD/sodipodi-0.dtd"
   xmlns:inkscape="http://www.inkscape.org/namespaces/inkscape"
   width="744.09448819"
   height="1052.3622047"
   id="svg2"
   version="1.1"
   inkscape:version="0.48.2 r9819"
   sodipodi:docname="rating-stars.svg">
  <defs
     id="defs4" />
  <sodipodi:namedview
     id="base"
     pagecolor="#ffffff"
     bordercolor="#666666"
     borderopacity="1.0"
     inkscape:pageopacity="0.0"
     inkscape:pageshadow="2"
     inkscape:zoom="1"
     inkscape:cx="60.335531"
     inkscape:cy="1047.5355"
     inkscape:document-units="px"
     inkscape:current-layer="layer1"
     showgrid="false"
     inkscape:window-width="1854"
     inkscape:window-height="1176"
     inkscape:window-x="66"
     inkscape:window-y="24"
     inkscape:window-maximized="1" />
  <metadata
     id="metadata7">
    <rdf:RDF>
      <cc:Work
         rdf:about="">
        <dc:format>image/svg+xml</dc:format>
        <dc:type
           rdf:resource="http://purl.org/dc/dcmitype/StillImage" />
        <dc:title></dc:title>
      </cc:Work>
    </rdf:RDF>
  </metadata>
  <g
     inkscape:label="Layer 1"
     inkscape:groupmode="layer"
     id="layer1">
    <g
       id="g2999"
       inkscape:export-filename="../assets/images/star-on.png"
       inkscape:export-xdpi="90"
       inkscape:export-ydpi="90">
      <path
         transform="matrix(0.39330863,0,0,0.39330863,21.84089,11.657556)"
         d="M 36.09375,17.34375 A 3.0212162,3.0212162 0 0 0 33.15625,19.375 L 25.5,40.90625 2.625,41.5 a 3.0212162,3.0212162 0 0 0 -1.75,5.4375 L 19,60.875 12.53125,82.84375 a 3.0212162,3.0212162 0 0 0 4.625,3.34375 L 36,73.21875 54.84375,86.1875 a 3.0212162,3.0212162 0 0 0 4.625,-3.34375 L 53,60.875 71.125,46.9375 A 3.0212162,3.0212162 0 0 0 69.375,41.5 L 46.5,40.90625 38.84375,19.375 a 3.0212162,3.0212162 0 0 0 -2.75,-2.03125 z"
         id="path2987"
         style="color:#000000;fill:#d4aa00;fill-opacity:1;fill-rule:nonzero;stroke:#000000;stroke-width:3.81379885;marker:none;visibility:visible;display:inline;overflow:visible;enable-background:accumulate"
         inkscape:original="M 36 20.375 L 27.65625 43.875 L 2.71875 44.53125 L 22.5 59.75 L 15.4375 83.6875 L 36 69.53125 L 56.5625 83.6875 L 49.5 59.75 L 69.28125 44.53125 L 44.34375 43.875 L 36 20.375 z "
         inkscape:radius="3.0209141"
         sodipodi:type="inkscape:offset" />
      <path
         id="path2989"
         d="M 35.8125 18.5 A 1.1882704 1.1882704 0 0 0 34.875 19.28125 L 31.875 27.75 L 22.875 27.96875 A 1.1882704 1.1882704 0 0 0 21.78125 28.8125 L 35.71875 33.34375 L 35.84375 18.5 A 1.1882704 1.1882704 0 0 0 35.8125 18.5 z "
         style="fill:#ffffff;stroke:none;stroke-width:1px;stroke-linecap:butt;stroke-linejoin:miter;stroke-opacity:1;opacity:0.25000000000000000" />
      <path
         id="path2994"
         d="M 50.15625 28.625 L 35.8125 33.25 L 27.3125 45.25 C 27.3125 45.25 27.26023 45.511304 27.25 45.5625 A 1.1882704 1.1882704 0 0 0 28.59375 45.5625 L 36 40.46875 L 43.40625 45.5625 A 1.1882704 1.1882704 0 0 0 45.21875 44.25 L 42.6875 35.59375 L 49.8125 30.125 A 1.1882704 1.1882704 0 0 0 50.15625 28.625 z "
         style="fill:#000000;stroke:none;stroke-width:1px;stroke-linecap:butt;stroke-linejoin:miter;stroke-opacity:1;opacity:0.15" />
    </g>
    <g
       id="g3004"
       transform="translate(34,0)"
       inkscape:export-filename="../assets/images/star-off.png"
       inkscape:export-xdpi="90"
       inkscape:export-ydpi="90">
      <path
         sodipodi:type="inkscape:offset"
         inkscape:radius="3.0209141"
         inkscape:original="M 36 20.375 L 27.65625 43.875 L 2.71875 44.53125 L 22.5 59.75 L 15.4375 83.6875 L 36 69.53125 L 56.5625 83.6875 L 49.5 59.75 L 69.28125 44.53125 L 44.34375 43.875 L 36 20.375 z "
         style="color:#000000;fill:#b3b3b3;fill-opacity:1;fill-rule:nonzero;stroke:#000000;stroke-width:3.81379890000000010;marker:none;visibility:visible;display:inline;overflow:visible;enable-background:accumulate"
         id="path3006"
         d="M 36.09375,17.34375 A 3.0212162,3.0212162 0 0 0 33.15625,19.375 L 25.5,40.90625 2.625,41.5 a 3.0212162,3.0212162 0 0 0 -1.75,5.4375 L 19,60.875 12.53125,82.84375 a 3.0212162,3.0212162 0 0 0 4.625,3.34375 L 36,73.21875 54.84375,86.1875 a 3.0212162,3.0212162 0 0 0 4.625,-3.34375 L 53,60.875 71.125,46.9375 A 3.0212162,3.0212162 0 0 0 69.375,41.5 L 46.5,40.90625 38.84375,19.375 a 3.0212162,3.0212162 0 0 0 -2.75,-2.03125 z"
         transform="matrix(0.39330863,0,0,0.39330863,21.84089,11.657556)" />
    </g>
  </g>
</svg>
